source : hdchina (thanks).


file info :

name : Immortals 2011 720p Brrip x264 750MB Ratzz


General
Format                           : MPEG-4
Format profile                   : Base Media
Codec ID                         : isom
File size                        : 749 MiB
Duration                         : 1h 50mn
Overall bit rate                 : 949 Kbps
Encoded date                     : UTC 2012-02-17 02:58:01
Tagged date                      : UTC 2012-02-17 02:58:01

Video
ID                               : 1
Format                           : AVC
Format/Info                      : Advanced Video Codec
Format profile                   : High@L3.1
Format settings, CABAC           : Yes
Format settings, ReFrames        : 3 frames
Codec ID                         : avc1
Codec ID/Info                    : Advanced Video Coding
Duration                         : 1h 50mn
Bit rate mode                    : Variable
Bit rate                         : 883 Kbps
Maximum bit rate                 : 17.5 Mbps
Width                            : 1 280 pixels
Height                           : 692 pixels
Display aspect ratio             : 1.850
Frame rate mode                  : Constant
Frame rate                       : 23.976 fps
Color space                      : YUV
Chroma subsampling               : 4:2:0
Bit depth                        : 8 bits
Scan type                        : Progressive
Bits/(Pixel*Frame)               : 0.042
Stream size                      : 697 MiB (93%)
Title                            : Immortals 2011 720p BRRIP x264 Ratzz


Audio
ID                               : 2
Format                           : AAC
Format/Info                      : Advanced Audio Codec
Format profile                   : HE-AAC / LC
Codec ID                         : 40
Duration                         : 1h 50mn
Bit rate mode                    : Variable
Bit rate                         : 64.0 Kbps
Maximum bit rate                 : 70.6 Kbps
Channel(s)                       : 2 channels
Channel positions                : Front: L R
Sampling rate                    : 48.0 KHz / 24.0 KHz
Compression mode                 : Lossy
Stream size                      : 50.6 MiB (7%)
Language                         : English
Encoded date                     : UTC 2012-02-17 02:58:26
Tagged date                      : UTC 2012-02-17 02:58:30



Subtitles   :  english  .srt file included





Poster :
  
http://bayfiles.com/file/36xh/1XgKg9/Immortals_2011_720p_BRRIP_x264_750MB_English_Ratzz.jpg


Images :
  
http://bayfiles.com/file/36IV/CwsfQP/Immortals_2011_720p_BRRIP_x264_750MB_English_Ratzz%5B08-29-37%5D.JPG
  
http://bayfiles.com/file/36JZ/x3ehYs/Immortals_2011_720p_BRRIP_x264_750MB_English_Ratzz%5B08-30-22%5D.JPG
  
http://bayfiles.com/file/36KR/eo40pg/Immortals_2011_720p_BRRIP_x264_750MB_English_Ratzz%5B08-29-37%5D.JPG


pls keep seeding and hit quality if you like.
initial seeding will be slow so be patient.		